<?xml version="1.0" encoding="UTF-8" standalone="no"?>
<svg
   xmlns:dc="http://purl.org/dc/elements/1.1/"
   xmlns:cc="http://creativecommons.org/ns#"
   xmlns:rdf="http://www.w3.org/1999/02/22-rdf-syntax-ns#"
   xmlns:svg="http://www.w3.org/2000/svg"
   xmlns="http://www.w3.org/2000/svg"
   xmlns:sodipodi="http://sodipodi.sourceforge.net/DTD/sodipodi-0.dtd"
   xmlns:inkscape="http://www.inkscape.org/namespaces/inkscape"
   inkscape:version="1.0 (4035a4fb49, 2020-05-01)"
   sodipodi:docname="Junior-Logo.svg"
   id="svg63728"
   height="401.20367"
   width="677.05334"
   version="1.0">
  <metadata
     id="metadata41">
    <rdf:RDF>
      <cc:Work
         rdf:about="">
        <dc:format>image/svg+xml</dc:format>
        <dc:type
           rdf:resource="http://purl.org/dc/dcmitype/StillImage" />
        <dc:title></dc:title>
      </cc:Work>
    </rdf:RDF>
  </metadata>
  <sodipodi:namedview
     inkscape:current-layer="svg63728"
     inkscape:window-maximized="1"
     inkscape:window-y="-8"
     inkscape:window-x="-8"
     inkscape:cy="200.60182"
     inkscape:cx="338.52671"
     inkscape:zoom="1.2925245"
     fit-margin-bottom="0"
     fit-margin-right="0"
     fit-margin-left="0"
     fit-margin-top="0"
     showgrid="false"
     id="namedview39"
     inkscape:window-height="837"
     inkscape:window-width="1600"
     inkscape:pageshadow="2"
     inkscape:pageopacity="0"
     guidetolerance="10"
     gridtolerance="10"
     objecttolerance="10"
     borderopacity="1"
     bordercolor="#666666"
     pagecolor="#ffffff" />
  <defs
     id="defs63730" />
  <path
     id="path73193"
     style="fill:#fed800;fill-rule:nonzero;stroke:none"
     d="M 0,303.50688 V 96.859 C 0,96.859 1.5562,0 101.4081,0 c 99.7324,0 473.1595,0 473.1595,0 0,0 102.4857,0.4789 102.4857,96.859 0,96.3798 0,206.64788 0,206.64788 0,0 0.4789,97.6968 -102.4857,97.6968 -102.8453,0 -473.2791,-0.1197 -473.2791,-0.1197 0,0 -101.2885,0.71834 -101.2885,-97.5771" />
  <path
     id="path73195"
     style="fill:#304698;fill-rule:nonzero;stroke:none"
     d="m 368.997,251.3062 c -0.7184,2.7537 -0.2396,3.1129 1.796,3.3522 l 14.2475,1.4368 c 2.0353,0.3592 3.2325,-0.4788 4.789,-3.8313 6.8243,-14.6067 19.8745,-59.2646 -31.8474,-64.6524 -9.0992,-0.9577 -60.3422,-6.5848 -56.5108,68.3641 0.1196,2.5141 1.0776,3.2325 3.3522,2.993 4.4301,-0.3592 25.6215,-2.155 25.6215,-2.155 2.1552,-0.2395 2.8736,-1.796 2.8736,-3.5917 0,-3.2329 -2.7537,-37.5944 25.2623,-36.3971 18.1984,0.838 14.4867,17.3603 10.4161,34.4814" />
  <path
     id="path73197"
     style="fill:#f1661f;fill-rule:nonzero;stroke:none"
     d="m 413.655,258.4897 c -1.9157,0.1197 -2.7537,-1.1972 -2.8734,-2.5141 -0.2395,-6.7047 0.9577,-32.2066 -8.5007,-59.145 -0.838,-2.0353 -0.3592,-3.4721 1.6764,-3.951 l 39.1505,-9.2191 c 1.9157,-0.3592 3.113,0.4791 3.5918,1.0776 3.7114,4.0706 3.1129,40.1085 -12.0925,69.681 -1.0776,2.155 -2.1549,2.2746 -4.1902,2.5142 -0.4792,0 -16.6423,1.5564 -16.7619,1.5564" />
  <path
     id="path73199"
     style="fill:#ea1b22;fill-rule:nonzero;stroke:none"
     d="m 156.4825,141.7563 c 4.5494,-2.155 33.2839,-5.0283 44.2987,-0.9577 1.0777,0.4788 1.1973,1.6761 1.1973,2.1549 -2.6341,36.9956 -27.2976,117.9307 -101.7676,120.80408 -42.2635,1.5565 -59.7435,-17.47998 -59.983,-17.83918 -0.4789,-0.4788 -1.6761,-1.7957 -0.1197,-3.1129 0,0 33.2839,-27.2976 33.2839,-27.2976 0.8381,-0.7185 1.9157,-1.7961 3.3525,-0.5985 0.838,0.5985 22.1494,20.2337 40.9466,17.2404 10.8949,-1.5565 17.9588,-7.4231 24.7831,-21.5506 8.86,-18.0788 12.691,-62.6171 13.1701,-67.2865 0,-0.7184 0.1197,-1.3169 0.8381,-1.5564" />
  <path
     id="path73201"
     style="fill:#015dab;fill-rule:nonzero;stroke:none"
     d="m 555.7704,204.1338 c 12.4514,-20.4733 49.2077,-22.3887 60.2223,-19.9942 2.0356,0.5985 2.0356,1.9154 1.6764,3.4719 -0.1199,0 -5.1482,21.6705 -6.5851,26.3399 -0.4788,1.3169 -1.1972,1.9157 -2.0353,1.796 -7.4231,-0.4791 -38.3125,-4.6694 -31.8473,34.96 0.2395,1.9157 -0.1197,2.3945 -1.4366,2.9933 0,0 -16.0434,5.7467 -16.0434,5.7467 -0.7184,0.2396 -1.9157,0.1199 -2.155,-0.7184 -0.1199,0 -14.3673,-34.1219 -1.796,-54.5952" />
  <path
     id="path73203"
     style="fill:#ea368c;fill-rule:evenodd;stroke:none"
     d="m 544.2767,205.5706 c -5.0286,-19.7549 -29.2133,-28.2556 -53.9968,-18.9168 -24.9031,9.3388 -40.9465,33.0446 -35.9179,52.7995 5.0286,19.7548 29.3329,28.25528 54.1164,18.9168 24.903,-9.3388 40.9465,-32.925 35.7983,-52.7995 z m -31.0093,26.8188 c -10.1766,5.9863 -21.431,4.0706 -25.2623,-4.1906 -3.951,-8.2611 1.1972,-19.8745 11.374,-25.8608 10.0572,-5.9862 21.431,-4.0709 25.2624,4.1903 3.8313,8.3811 -1.3169,19.9944 -11.3741,25.8611" />
  <path
     id="path73205"
     style="fill:#018fd2;fill-rule:evenodd;stroke:none"
     d="m 423.1134,119.4872 c -8.5007,-10.1768 -28.4949,-8.2611 -44.658,4.5495 -16.1631,12.5713 -22.3889,31.1289 -13.8882,41.3058 8.5004,10.2964 28.3752,8.2611 44.658,-4.4299 16.1631,-12.6909 22.3889,-31.2485 13.8882,-41.4254 z m -15.9235,27.6569 c -7.6627,6.2258 -17.2408,7.4231 -21.4313,2.634 -4.0706,-4.7893 -1.3169,-13.7686 6.2258,-19.9944 7.6627,-6.2259 17.2408,-7.4231 21.431,-2.6341 4.1906,4.789 1.4368,13.7686 -6.2255,19.9945" />
  <path
     id="path73207"
     style="fill:#018fd2;fill-rule:evenodd;stroke:none"
     d="m 494.4705,78.6603 c -22.9874,-12.571 -48.8485,-11.2541 -57.7082,2.8737 -8.8599,14.2474 2.6338,36.0376 25.7412,48.6089 23.1071,12.5713 48.9681,11.1345 57.8278,-2.9933 8.74,-14.2474 -2.7537,-35.918 -25.8608,-48.4893 z m -6.1062,32.5658 c -4.3102,6.8243 -16.7616,7.4231 -27.7765,1.4368 -11.0148,-6.1062 -16.5223,-16.5223 -12.3317,-23.3469 4.3101,-6.8244 16.7615,-7.4228 27.7764,-1.3169 11.1345,6.1062 16.5223,16.5223 12.3318,23.227" />
  <path
     id="path73209"
     style="fill:#32ad42;fill-rule:nonzero;stroke:none"
     d="m 297.2807,195.0346 c 2.5145,-0.1197 3.1129,0.3592 2.1553,7.1835 -11.853,89.19628 -161.2719,73.15308 -94.3446,-10.1765 2.2749,-2.8737 1.6761,-2.8737 6.1059,-3.1129 7.5428,-0.3592 26.6992,-1.7961 28.8541,-2.0353 1.796,-0.12 2.0356,1.1972 1.6764,1.9153 -36.756,58.0674 30.0513,53.2784 33.7627,9.698 0.2396,-1.796 0.3592,-2.3945 2.6341,-2.3945 0,0 19.1561,-1.0776 19.1561,-1.0776" />
</svg>
