<?xml version="1.0" standalone="no"?>
<!DOCTYPE svg PUBLIC "-//W3C//DTD SVG 20010904//EN"
 "http://www.w3.org/TR/2001/REC-SVG-20010904/DTD/svg10.dtd">
<svg version="1.0" xmlns="http://www.w3.org/2000/svg"
 width="528.000000pt" height="296.000000pt" viewBox="0 0 528.000000 296.000000"
 preserveAspectRatio="xMidYMid meet">
<metadata>
Created by potrace 1.16, written by Peter Selinger 2001-2019
</metadata>
<g transform="translate(0.000000,296.000000) scale(0.100000,-0.100000)"
fill="#000000" stroke="none">
<path d="M2870 2069 c-7 -11 -9 -31 -6 -42 8 -33 160 -177 186 -177 13 0 46
24 84 60 l62 59 59 -59 c38 -38 68 -60 82 -60 14 0 45 22 82 59 l60 59 59 -59
c40 -40 67 -59 83 -59 31 0 49 17 49 48 0 31 -159 192 -190 192 -13 0 -47 -24
-84 -60 l-62 -59 -55 55 c-78 79 -88 79 -164 4 l-64 -63 -61 61 c-66 67 -101
78 -120 41z"/>
<path d="M1044 1827 c-2 -7 -3 -118 -2 -247 l3 -235 50 0 50 0 3 113 3 113
107 -3 107 -3 3 -112 3 -113 49 0 50 0 0 250 0 250 -50 0 -50 0 0 -90 0 -90
-110 0 -110 0 0 90 0 90 -50 0 c-32 0 -52 -5 -56 -13z"/>
<path d="M1636 1600 c-53 -133 -96 -246 -96 -251 0 -5 20 -9 45 -9 42 0 46 2
65 40 l20 40 114 0 113 0 16 -40 c15 -38 17 -40 60 -40 24 0 46 2 49 5 2 3
-39 114 -92 247 l-96 243 -51 3 -51 3 -96 -241z m217 -82 c-6 -12 -143 -10
-143 2 0 8 26 81 60 165 12 30 12 30 49 -65 21 -52 36 -98 34 -102z"/>
<path d="M2010 1833 c0 -4 39 -78 86 -165 l85 -158 -21 -29 c-13 -20 -31 -31
-51 -33 -24 -2 -36 -12 -53 -40 -27 -47 -15 -62 54 -62 82 0 106 27 241 275
l117 214 -51 3 c-60 4 -56 8 -129 -127 l-50 -94 -22 35 c-11 19 -39 70 -61
112 l-40 76 -52 0 c-29 0 -53 -3 -53 -7z"/>
<path d="M2502 1721 c3 -111 5 -121 28 -146 40 -43 79 -58 150 -58 36 0 75 3
87 7 22 7 22 5 25 -86 l3 -93 50 0 50 0 3 248 2 247 -55 0 -55 0 0 -105 c0
-104 0 -106 -26 -115 -49 -19 -113 -12 -139 15 -23 22 -25 32 -25 115 l0 90
-51 0 -51 0 4 -119z"/>
<path d="M2990 1590 l0 -250 23 0 c16 0 63 44 167 154 80 85 148 155 153 155
4 1 7 -69 7 -155 l0 -155 48 3 47 3 3 248 2 248 -27 -3 c-21 -2 -64 -40 -173
-156 l-145 -152 -3 155 -3 155 -49 0 -50 0 0 -250z"/>
<path d="M3530 1590 l0 -250 50 0 50 0 0 150 c0 83 3 150 8 149 4 0 40 -39 80
-85 41 -46 77 -84 80 -83 4 0 39 38 77 84 39 46 73 84 78 84 4 1 7 -66 7 -149
0 -170 4 -178 65 -112 l34 37 1 213 0 212 -24 0 c-19 0 -49 -28 -126 -117 -56
-65 -107 -118 -114 -118 -7 0 -59 53 -116 118 -77 88 -108 117 -126 117 l-24
0 0 -250z"/>
<path d="M1048 1285 c-50 -28 -50 -103 0 -129 56 -28 112 6 112 69 0 56 -61
88 -112 60z"/>
<path d="M1745 1289 c-63 -35 -59 -113 6 -138 30 -11 83 8 93 34 11 31 6 72
-11 88 -25 22 -64 29 -88 16z"/>
</g>
</svg>
