<?xml version="1.0" standalone="no"?>
<!DOCTYPE svg PUBLIC "-//W3C//DTD SVG 20010904//EN"
 "http://www.w3.org/TR/2001/REC-SVG-20010904/DTD/svg10.dtd">
<svg version="1.0" xmlns="http://www.w3.org/2000/svg"
 width="2384.000000pt" height="2272.000000pt" viewBox="0 0 2384.000000 2272.000000"
 preserveAspectRatio="xMidYMid meet">
<metadata>
Created by potrace 1.16, written by Peter Selinger 2001-2019
</metadata>
<g transform="translate(0.000000,2272.000000) scale(0.100000,-0.100000)"
fill="#000000" stroke="none">
<path d="M0 11360 l0 -11360 11920 0 11920 0 0 11360 0 11360 -11920 0 -11920
0 0 -11360z m21499 6631 c18 -13 42 -42 52 -65 18 -40 19 -138 19 -3101 l0
-3061 -22 -44 c-13 -24 -34 -52 -48 -62 -14 -10 -623 -236 -1355 -502 -731
-266 -2140 -779 -3130 -1139 -15411 -5609 -14556 -5299 -14602 -5292 -78 12
-143 89 -143 170 0 27 758 1661 2971 6408 1634 3505 2999 6431 3032 6502 63
136 83 166 132 196 29 18 203 19 6545 16 l6515 -2 34 -24z"/>
<path d="M13195 17699 c-77 -11 -175 -59 -216 -106 -40 -46 -76 -123 -89 -193
-6 -31 -10 -257 -10 -549 0 -555 4 -593 64 -691 69 -113 192 -166 367 -158 76
4 107 10 155 32 115 52 182 149 204 293 7 47 10 239 8 569 -3 473 -5 502 -24
560 -53 156 -158 233 -339 247 -33 3 -87 1 -120 -4z m140 -243 c19 -8 44 -30
55 -48 19 -32 20 -49 20 -551 0 -571 0 -571 -61 -602 -50 -26 -135 -16 -165
19 -43 49 -45 80 -42 605 3 487 4 500 24 528 23 32 78 63 112 63 12 0 38 -6
57 -14z"/>
<path d="M8657 17683 c-4 -3 -7 -379 -7 -835 l0 -828 130 0 130 0 0 355 0 355
150 0 150 0 0 -355 0 -355 135 0 135 0 0 835 0 836 -132 -3 -133 -3 -3 -358
-2 -358 -148 3 -147 3 -3 358 -2 357 -123 0 c-68 0 -127 -3 -130 -7z"/>
<path d="M9915 17678 c-5 -14 -265 -1630 -265 -1648 0 -6 45 -10 119 -10 l119
0 5 33 c3 17 14 85 23 150 l17 117 162 0 161 0 18 -127 c10 -71 20 -138 23
-150 5 -22 9 -23 134 -23 107 0 129 3 129 15 0 8 -58 381 -130 828 -71 448
-130 817 -130 821 0 3 -86 6 -190 6 -143 0 -192 -3 -195 -12z m240 -703 c30
-203 57 -382 59 -397 l6 -28 -125 0 c-76 0 -125 4 -125 10 0 13 108 736 116
780 9 44 4 70 69 -365z"/>
<path d="M10730 16855 l0 -835 343 -2 342 -3 3 -112 3 -113 124 0 125 0 0 230
0 230 -55 0 -55 0 0 720 0 720 -135 0 -135 0 0 -715 0 -715 -150 0 -150 0 0
715 0 715 -130 0 -130 0 0 -835z"/>
<path d="M11857 17683 c-4 -3 -7 -379 -7 -835 l0 -828 138 0 137 0 118 413
c64 226 136 485 160 575 l42 163 3 -576 2 -575 120 0 120 0 -2 833 -3 832
-144 0 -145 0 -98 -315 c-55 -173 -123 -405 -153 -515 l-54 -200 0 518 -1 517
-113 0 c-63 0 -117 -3 -120 -7z"/>
<path d="M13877 17684 c-4 -4 -7 -380 -7 -836 l0 -828 135 0 135 0 0 355 0
355 145 0 145 0 0 -355 0 -355 135 0 135 0 0 835 0 836 -132 -3 -133 -3 -3
-357 -2 -358 -145 0 -145 0 -2 358 -3 357 -126 3 c-69 1 -128 -1 -132 -4z"/>
<path d="M15135 17668 c-3 -13 -61 -376 -130 -808 -69 -432 -128 -797 -131
-812 l-6 -28 121 0 c105 0 120 2 125 18 3 9 12 69 21 132 9 63 18 123 21 133
5 15 21 17 164 17 l158 0 5 -32 c3 -18 14 -86 23 -150 l17 -118 134 0 c133 0
133 0 128 23 -2 12 -61 378 -130 812 -69 435 -127 800 -130 813 -5 22 -7 22
-195 22 -188 0 -190 0 -195 -22z m245 -702 c33 -219 60 -402 60 -407 0 -5 -56
-9 -125 -9 -125 0 -125 0 -121 23 3 12 31 196 63 409 31 213 58 386 60 384 2
-1 30 -182 63 -400z"/>
<path d="M16127 17548 c-4 -79 -14 -368 -23 -643 -8 -275 -20 -524 -25 -552
-12 -63 -39 -88 -104 -97 l-45 -7 0 -120 0 -120 68 6 c187 17 269 71 316 209
28 82 35 176 46 646 6 250 13 483 16 518 l6 63 111 -3 112 -3 3 -712 2 -713
130 0 130 0 0 835 0 835 -369 0 -368 0 -6 -142z"/>
<path d="M17090 16854 l0 -835 258 3 258 3 66 33 c79 39 128 92 160 171 21 51
23 76 26 283 4 256 -5 316 -60 401 -63 98 -150 137 -325 144 l-123 6 0 313 0
314 -130 0 -130 0 0 -836z m451 -50 c51 -26 59 -62 59 -264 0 -260 -12 -280
-162 -280 l-88 0 0 280 0 280 80 0 c54 0 91 -5 111 -16z"/>
<path d="M18050 16855 l0 -835 130 0 130 0 0 355 0 355 150 0 150 0 0 -355 0
-355 135 0 135 0 0 835 0 835 -135 0 -135 0 0 -360 0 -360 -150 0 -150 0 0
360 0 360 -130 0 -130 0 0 -835z"/>
<path d="M19090 16854 l0 -835 258 3 257 3 63 29 c66 31 119 81 150 143 37 72
44 137 40 373 -4 265 -14 305 -98 390 -71 70 -133 91 -287 98 l-123 5 0 313 0
314 -130 0 -130 0 0 -836z m451 -50 c51 -26 59 -61 59 -269 0 -257 -10 -275
-162 -275 l-88 0 0 280 0 280 80 0 c54 0 91 -5 111 -16z"/>
<path d="M20017 17684 c-4 -4 -7 -380 -7 -836 l0 -828 135 0 135 0 -2 833 -3
832 -126 3 c-69 1 -128 -1 -132 -4z"/>
<path d="M20490 16855 l0 -835 355 0 355 0 0 120 0 120 -225 0 -225 0 0 240 0
240 180 0 180 0 0 120 0 120 -177 2 -178 3 -3 233 -2 232 225 0 225 0 0 120 0
120 -355 0 -355 0 0 -835z"/>
<path d="M16366 15685 c-110 -31 -197 -115 -233 -224 -17 -52 -18 -99 -18
-621 l0 -565 23 -57 c50 -123 155 -200 298 -218 236 -30 410 78 453 280 9 40
11 207 9 600 -3 541 -3 545 -26 601 -32 80 -90 142 -169 181 -60 29 -74 32
-177 35 -73 1 -128 -2 -160 -12z m219 -247 c55 -43 55 -44 55 -593 0 -550 0
-555 -56 -591 -36 -24 -120 -24 -156 0 -57 37 -58 50 -58 589 0 305 4 506 10
529 16 57 60 88 124 88 40 0 60 -6 81 -22z"/>
<path d="M14132 14848 l3 -833 128 -3 127 -3 0 716 0 715 150 0 150 0 2 -712
3 -713 133 -3 132 -3 0 836 0 835 -415 0 -415 0 2 -832z"/>
<path d="M15170 14845 l0 -835 130 0 130 0 0 314 0 313 123 5 c194 9 286 56
346 181 43 87 54 179 48 387 -6 229 -23 287 -106 371 -48 47 -69 61 -125 78
-61 19 -93 21 -307 21 l-239 0 0 -835z m454 584 c51 -23 57 -60 54 -284 l-3
-205 -28 -27 c-25 -26 -34 -28 -122 -31 l-95 -4 0 281 0 281 85 0 c46 0 95 -5
109 -11z"/>
<path d="M17100 14845 l0 -835 358 2 357 3 3 117 3 118 -228 2 -228 3 -3 243
-2 242 180 0 180 0 0 120 0 120 -180 0 -180 0 0 230 0 230 228 2 227 3 3 118
3 117 -361 0 -360 0 0 -835z"/>
<path d="M18002 14848 l3 -833 130 0 130 0 5 265 5 265 35 62 c19 35 37 59 41
55 3 -4 62 -152 129 -329 l123 -323 133 0 c74 0 134 3 134 6 0 3 -81 212 -181
464 l-180 459 180 368 181 368 -122 3 c-67 1 -127 1 -133 -2 -6 -2 -85 -160
-176 -352 l-164 -347 -3 351 -2 352 -135 0 -135 0 2 -832z"/>
<path d="M19010 15560 l0 -120 135 0 135 0 0 -715 0 -715 130 0 130 0 0 715 0
715 140 0 140 0 0 120 0 120 -405 0 -405 0 0 -120z"/>
<path d="M19982 14848 l3 -833 200 -3 c110 -1 232 2 270 8 136 20 230 91 277
209 22 53 23 69 23 306 0 237 -1 253 -23 306 -61 152 -187 218 -414 219 l-68
0 0 310 0 310 -135 0 -135 0 2 -832z m469 -54 c42 -37 49 -73 49 -259 0 -254
-13 -276 -160 -283 l-90 -4 0 287 0 287 90 -4 c70 -3 94 -8 111 -24z"/>
<path d="M20910 14845 l0 -835 130 0 130 0 0 835 0 835 -130 0 -130 0 0 -835z"/>
<path d="M16705 13694 c-163 -41 -244 -110 -287 -246 -17 -55 -18 -103 -18
-603 0 -500 1 -548 18 -603 48 -153 160 -235 339 -249 179 -14 328 59 389 191
43 93 45 126 42 692 -3 525 -4 540 -24 591 -63 152 -169 221 -349 228 -49 2
-99 2 -110 -1z m156 -250 c18 -9 38 -32 50 -57 17 -39 19 -72 19 -542 0 -470
-2 -503 -19 -542 -25 -54 -67 -77 -133 -71 -54 6 -84 27 -104 75 -21 49 -20
1029 0 1078 28 66 119 95 187 59z"/>
<path d="M17645 13687 c-151 -40 -240 -146 -265 -312 -5 -39 -10 -274 -10
-530 0 -256 5 -491 10 -530 25 -171 122 -281 278 -314 151 -32 307 6 394 96
77 80 108 200 108 419 l0 114 -125 0 -125 0 0 -132 c0 -149 -10 -200 -47 -234
-56 -52 -163 -37 -203 28 -19 32 -20 49 -20 554 l0 521 23 34 c39 58 101 74
172 45 55 -23 69 -62 73 -203 l4 -123 124 0 124 0 0 84 c0 264 -70 407 -229
467 -70 26 -215 34 -286 16z"/>
<path d="M18605 13687 c-151 -40 -240 -146 -265 -312 -5 -39 -10 -274 -10
-530 0 -256 5 -491 10 -530 25 -171 122 -281 278 -314 155 -33 313 7 396 100
78 85 106 196 106 415 l0 114 -125 0 -125 0 0 -132 c0 -149 -10 -200 -47 -234
-56 -52 -163 -37 -203 28 -19 32 -20 49 -20 554 l0 521 23 34 c39 58 101 74
172 45 55 -23 69 -62 73 -203 l4 -123 124 0 124 0 0 84 c0 264 -70 407 -229
467 -70 26 -215 34 -286 16z"/>
<path d="M15460 12846 l0 -836 130 0 130 0 0 314 0 314 128 4 c113 4 134 7
190 32 73 34 123 85 161 165 l26 56 0 260 c0 249 -1 262 -23 318 -32 78 -101
147 -177 177 -56 23 -76 24 -312 28 l-253 4 0 -836z m450 581 c51 -25 60 -64
60 -270 0 -260 -10 -277 -162 -277 l-88 0 0 280 0 280 83 0 c45 0 93 -6 107
-13z"/>
<path d="M19300 12845 l0 -836 137 3 137 3 121 425 c67 234 139 493 161 575
l39 150 3 -577 2 -578 120 0 120 0 0 835 0 835 -147 0 -148 0 -112 -363 c-61
-199 -129 -429 -150 -512 l-38 -150 -3 513 -2 512 -120 0 -120 0 0 -835z"/>
<path d="M20340 12845 l0 -836 137 3 137 3 98 340 c53 187 126 446 160 575
l63 235 3 -577 2 -578 115 0 115 0 0 835 0 835 -142 0 -143 0 -99 -318 c-55
-174 -123 -405 -152 -512 l-53 -195 0 513 -1 512 -120 0 -120 0 0 -835z"/>
</g>
</svg>
