<?xml version="1.0" standalone="no"?>
<!DOCTYPE svg PUBLIC "-//W3C//DTD SVG 20010904//EN"
 "http://www.w3.org/TR/2001/REC-SVG-20010904/DTD/svg10.dtd">
<svg version="1.0" xmlns="http://www.w3.org/2000/svg"
 width="240.000000pt" height="240.000000pt" viewBox="0 0 240.000000 240.000000"
 preserveAspectRatio="xMidYMid meet">
<metadata>
Created by potrace 1.16, written by Peter Selinger 2001-2019
</metadata>
<g transform="translate(0.000000,240.000000) scale(0.100000,-0.100000)"
fill="#000000" stroke="none">
<path d="M988 1890 c-98 -17 -188 -57 -188 -83 1 -7 20 -21 43 -32 56 -27 86
-88 101 -201 12 -102 -4 -277 -31 -333 -54 -110 -171 12 -341 357 -46 95 -94
179 -106 187 -16 12 -61 15 -222 15 -182 0 -204 -2 -225 -19 -22 -17 -22 -21
-10 -62 35 -120 228 -478 372 -689 157 -231 284 -361 428 -438 119 -64 201
-83 383 -89 156 -6 156 -6 180 19 21 20 26 37 30 103 7 88 31 160 59 175 10 6
32 10 50 10 29 0 49 -17 170 -139 175 -178 162 -173 462 -169 195 3 217 5 236
22 56 50 2 144 -201 352 -86 88 -162 173 -168 188 -15 41 10 89 137 256 189
250 243 341 243 412 0 65 -12 68 -277 68 -277 0 -259 8 -327 -147 -49 -113
-105 -213 -179 -321 -93 -136 -152 -164 -190 -92 -17 32 -18 55 -12 291 4 189
3 263 -6 283 -31 66 -239 105 -411 76z"/>
</g>
</svg>
